<svg xmlns="http://www.w3.org/2000/svg" width="24.378" height="17.606" viewBox="0 0 24.378 17.606">
  <defs>
    <style>
      .cls-1 {
        fill: #20638d;
      }
    </style>
  </defs>
  <g id="noun_Email_429221" transform="translate(-5 -17.5)">
    <path id="Path_5" data-name="Path 5" class="cls-1" d="M76.392,26.051l-6.869,6.487,6.869,6.488a2.684,2.684,0,0,0,.032-.393V26.443A2.677,2.677,0,0,0,76.392,26.051Z" transform="translate(-47.046 -6.235)"/>
    <path id="Path_6" data-name="Path 6" class="cls-1" d="M20.34,28.013,30.413,18.5a2.705,2.705,0,0,0-2.1-1H9.355a2.707,2.707,0,0,0-2.1,1l10.073,9.514A2.247,2.247,0,0,0,20.34,28.013Z" transform="translate(-1.646)"/>
    <path id="Path_7" data-name="Path 7" class="cls-1" d="M5.032,26.049A2.722,2.722,0,0,0,5,26.442V38.631a2.722,2.722,0,0,0,.032.393L11.9,32.536Z" transform="translate(0 -6.233)"/>
    <path id="Path_8" data-name="Path 8" class="cls-1" d="M21.27,55.2a3.59,3.59,0,0,1-4.868,0l-1.868-1.764L7.259,60.309a2.706,2.706,0,0,0,2.1,1H28.317a2.706,2.706,0,0,0,2.1-1l-7.275-6.872Z" transform="translate(-1.647 -26.203)"/>
  </g>
</svg>
