<svg xmlns="http://www.w3.org/2000/svg" width="76.013" height="100.015" viewBox="0 0 76.013 100.015">
  <defs>
    <style>
      .cls-1 {
        fill: #266891;
      }
    </style>
  </defs>
  <g id="noun_Location_3398440" transform="translate(-11.993 0.015)">
    <path id="Path_15" data-name="Path 15" class="cls-1" d="M50,0A36.96,36.96,0,0,0,12.008,35.9q-.024.872-.008,1.742c0,31.52,35.2,60.68,36.68,61.879a2,2,0,0,0,2.6,0C52.84,98.12,88,66.04,88,37.64A36.959,36.959,0,0,0,51.741-.008Q50.871-.024,50,0Zm0,56A18,18,0,1,1,68,38,18,18,0,0,1,50,56Z"/>
  </g>
</svg>
