<svg xmlns="http://www.w3.org/2000/svg" width="24.636" height="24.714" viewBox="0 0 24.636 24.714">
  <defs>
    <style>
      .cls-1 {
        fill: #20638d;
      }
    </style>
  </defs>
  <g id="noun_Phone_1147912" transform="translate(946.318 -953.466)">
    <g id="Group_2" data-name="Group 2">
      <path id="Path_1" data-name="Path 1" class="cls-1" d="M-924.548,977.768l-4.623-2.39a1.522,1.522,0,0,0-1.9.416l-1.688,2.182a16.8,16.8,0,0,1-4.363-3.195,16.275,16.275,0,0,1-3.221-4.441l2.156-1.688a1.522,1.522,0,0,0,.416-1.9l-2.39-4.6a1.543,1.543,0,0,0-2.208-.571l-2.935,1.974a2.328,2.328,0,0,0-1.013,2.052,13.885,13.885,0,0,0,.364,2.623,21.6,21.6,0,0,0,5.818,9.584,22.082,22.082,0,0,0,9.584,5.818A19.772,19.772,0,0,0-927.9,984a2.281,2.281,0,0,0,2.078-1.039l1.922-2.987A1.648,1.648,0,0,0-924.548,977.768Z" transform="translate(0 -5.826)"/>
      <path id="Path_2" data-name="Path 2" class="cls-1" d="M-900.589,984.621a3.433,3.433,0,0,1,1.584.935,3.569,3.569,0,0,1,.935,1.584,1.04,1.04,0,0,0,1.065.753h.1a1.057,1.057,0,0,0,.987-1.325A5.676,5.676,0,0,0-897.42,984a5.811,5.811,0,0,0-2.571-1.506,1.057,1.057,0,0,0-1.325.987v.1A.982.982,0,0,0-900.589,984.621Z" transform="translate(-33.309 -21.459)"/>
      <path id="Path_3" data-name="Path 3" class="cls-1" d="M-899.891,970.066a7.362,7.362,0,0,1,3.9,2.026,7.1,7.1,0,0,1,2.026,3.9,1.1,1.1,0,0,0,1.117.883h.078a1.043,1.043,0,0,0,.987-1.247,9.756,9.756,0,0,0-2.649-5.117,9.312,9.312,0,0,0-5.117-2.649,1.072,1.072,0,0,0-1.247.987v.078A1.149,1.149,0,0,0-899.891,970.066Z" transform="translate(-33.695 -10.644)"/>
      <path id="Path_4" data-name="Path 4" class="cls-1" d="M-887.332,964.825a13.281,13.281,0,0,0-3.766-7.584,13.281,13.281,0,0,0-7.584-3.766,1.068,1.068,0,0,0-1.221,1.013v.1a1.078,1.078,0,0,0,.935,1.117,10.943,10.943,0,0,1,6.285,3.143,11.181,11.181,0,0,1,3.143,6.286,1.078,1.078,0,0,0,1.117.935h.1A1.119,1.119,0,0,0-887.332,964.825Z" transform="translate(-34.358)"/>
    </g>
  </g>
</svg>
